<?xml version="1.0" standalone="no"?><!DOCTYPE svg PUBLIC "-//W3C//DTD SVG 1.1//EN" "http://www.w3.org/Graphics/SVG/1.1/DTD/svg11.dtd"><svg t="1627980631681" class="icon" viewBox="0 0 1024 1024" version="1.1" xmlns="http://www.w3.org/2000/svg" p-id="604" xmlns:xlink="http://www.w3.org/1999/xlink" width="20" height="20"><defs><style type="text/css"></style></defs><path d="M512.7 64.2c-159.4 1.7-298.6 88.9-375 218.5V163.9c0-20.6-16.5-37.3-36.8-37.3S64 143.3 64 163.9v191.7c0 20.6 16.5 37.3 36.8 37.3H259c20.3 0 36.8-16.7 36.8-37.3s-16.5-37.3-36.8-37.3h-56.5c15.1-25.1 33.3-48.6 54.4-70 66.5-67.5 155.7-106.5 249.8-109.3 104.5-3 203.2 37.7 275.7 113.7 66.6 69.8 103.7 163.5 103.4 260.6-0.4 99.1-38.6 192.2-107.9 262.3-69.6 70.4-162.1 109.3-260.4 109.3-98.4 0-190.9-38.8-260.4-109.3-61.6-62.4-98.7-142.9-106.4-229.8-1.7-19.2-17.6-33.9-36.7-33.9-21.7 0-38.6 18.9-36.7 40.9 20.4 228 209.7 406.7 440.1 406.7 244.4 0 442.4-200.9 442-448.5-0.5-246.8-203-449.3-446.7-446.8z" p-id="605" fill="#8a8a8a"></path><path d="M649.4 546.1H477.2v-172c0-19-15.4-34.4-34.4-34.4s-34.4 15.4-34.4 34.4v241.1h68.9v-0.2h172.2c19 0 34.4-15.4 34.4-34.4-0.1-19.1-15.5-34.5-34.5-34.5z" p-id="606" fill="#8a8a8a"></path></svg>