<?xml version="1.0" standalone="no"?><!DOCTYPE svg PUBLIC "-//W3C//DTD SVG 1.1//EN" "http://www.w3.org/Graphics/SVG/1.1/DTD/svg11.dtd"><svg t="1627635596942" class="icon" viewBox="0 0 1024 1024" version="1.1" xmlns="http://www.w3.org/2000/svg" p-id="2264" xmlns:xlink="http://www.w3.org/1999/xlink" width="20" height="20"><defs><style type="text/css">@font-face { font-family: feedback-iconfont; src: url("//at.alicdn.com/t/font_1031158_1uhr8ri0pk5.eot?#iefix") format("embedded-opentype"), url("//at.alicdn.com/t/font_1031158_1uhr8ri0pk5.woff2") format("woff2"), url("//at.alicdn.com/t/font_1031158_1uhr8ri0pk5.woff") format("woff"), url("//at.alicdn.com/t/font_1031158_1uhr8ri0pk5.ttf") format("truetype"), url("//at.alicdn.com/t/font_1031158_1uhr8ri0pk5.svg#iconfont") format("svg"); }
</style></defs><path d="M894.976 0C966.144 0 1024 57.856 1024 129.024v283.136c0 16.896-13.824 30.72-30.72 30.72s-30.72-13.824-30.72-30.72V129.024c-0.512-37.376-30.208-67.072-67.584-67.584h-762.88c-36.864 0.512-67.072 30.72-67.584 67.584v762.88c0.512 36.864 30.72 67.072 67.584 67.584h283.136c16.896 0 30.72 13.824 30.72 30.72s-13.824 30.72-30.72 30.72H131.584C60.416 1020.928 2.56 963.072 2.56 891.904v-762.88C3.072 57.856 60.928 0 131.584 0h763.392" p-id="2265" fill="#8a8a8a"></path><path d="M522.24 256c54.272 0 106.496 16.384 150.528 48.128 117.76 83.456 146.432 246.784 62.976 365.056l-14.336 20.48 17.92 17.92 183.808 183.808 0.512 0.512 0.512 0.512 1.536 1.536c10.24 11.264 9.728 28.672-1.536 39.424-5.12 4.608-11.776 7.68-18.944 7.68-7.68 0-14.848-3.072-20.48-8.704l-0.512-0.512-0.512-0.512-185.856-185.856-16.896-18.432-19.968 12.288c-41.472 26.112-89.6 39.936-138.752 39.936-54.272 0-106.496-16.384-151.04-48.128-117.76-83.456-146.432-246.784-62.976-365.056C356.864 297.472 437.248 256 522.24 256m2.048 467.968c111.616 0 202.24-90.624 202.24-202.24s-90.624-202.24-202.24-202.24-202.24 90.624-202.24 202.24c0.512 111.616 91.136 202.24 202.24 202.24" p-id="2266" fill="#8a8a8a"></path></svg>